# xmcd CD database file
#
# Track frame offsets:
#	150
#	21050
#	40447
#	61347
#
# Disc length: 1072 seconds
#
# Revision: 0
# Processed by: cddbd v1.5.1PL0 Copyright (c) Steve Scherf et al.
# Submitted via: CDex 1.51
#
DISCID=2d042e04
DTITLE=スーパーモンキーズ - ダンシング・ジャンク
DYEAR=1993
DGENRE=Pop
TTITLE0=ダンシング・ジャンク
TTITLE1=レインボー・ムーン
TTITLE2=ダンシング・ジャンク-karaoke-
TTITLE3=レインボー・ムーン-karaoke-
EXTD=YEAR: 1993
EXTT0=
EXTT1=
EXTT2=
EXTT3=
PLAYORDER=
